<svg width="83" height="25" viewBox="0 0 83 25" fill="none" xmlns="http://www.w3.org/2000/svg">
<path d="M6.96063 5.8C9.02729 5.8 10.6273 6.37333 11.7606 7.52C12.894 8.65333 13.4606 10.28 13.4606 12.4C13.4606 14.5067 12.894 16.1333 11.7606 17.28C10.6273 18.4267 9.02729 19 6.96063 19H1.86063V5.8H6.96063ZM6.82063 16.8C8.07396 16.8 9.01396 16.4267 9.64063 15.68C10.2806 14.92 10.6006 13.8267 10.6006 12.4C10.6006 10.9733 10.2806 9.88667 9.64063 9.14C9.01396 8.38 8.07396 8 6.82063 8H4.62063V16.8H6.82063ZM17.277 7.56C16.7037 7.56 16.277 7.44 15.997 7.2C15.717 6.94667 15.577 6.58 15.577 6.1C15.577 5.60667 15.717 5.24 15.997 5C16.277 4.74667 16.7037 4.62 17.277 4.62C17.8504 4.62 18.277 4.74667 18.557 5C18.837 5.24 18.977 5.60667 18.977 6.1C18.977 6.58 18.837 6.94667 18.557 7.2C18.277 7.44 17.8504 7.56 17.277 7.56ZM18.637 9V19H15.897V9H18.637ZM30.7616 6.62L31.0816 8.58C31.0282 8.58 30.9682 8.58 30.9016 8.58C30.8482 8.56667 30.7882 8.56 30.7216 8.56C30.1082 8.56 29.6482 8.7 29.3416 8.98C29.0349 9.24667 28.8816 9.62 28.8816 10.1L27.7616 9.64C27.7616 9.10667 27.8682 8.61333 28.0816 8.16C28.2949 7.69333 28.6082 7.32 29.0216 7.04C29.4482 6.76 29.9549 6.62 30.5416 6.62C30.5682 6.62 30.6016 6.62 30.6416 6.62C30.6816 6.62 30.7216 6.62 30.7616 6.62ZM27.4816 17.12C28.5616 17.12 29.3949 17.3533 29.9816 17.82C30.5682 18.2867 30.8616 18.94 30.8616 19.78C30.8616 20.54 30.6416 21.18 30.2016 21.7C29.7616 22.2333 29.1416 22.6333 28.3416 22.9C27.5549 23.1667 26.6416 23.3 25.6016 23.3C23.8816 23.3 22.6216 23.06 21.8216 22.58C21.0349 22.1 20.6416 21.4733 20.6416 20.7C20.6416 20.1533 20.8482 19.6933 21.2616 19.32C21.6882 18.9467 22.3882 18.74 23.3616 18.7L23.2616 19.02C22.5682 18.9 22.0349 18.6733 21.6616 18.34C21.3016 17.9933 21.1216 17.52 21.1216 16.92C21.1216 16.3067 21.3549 15.8067 21.8216 15.42C22.3016 15.02 22.9482 14.7867 23.7616 14.72L24.9616 15.28H24.6816C24.1082 15.32 23.7016 15.44 23.4616 15.64C23.2349 15.8267 23.1216 16.04 23.1216 16.28C23.1216 16.56 23.2282 16.7733 23.4416 16.92C23.6682 17.0533 23.9882 17.12 24.4016 17.12H27.4816ZM25.6216 21.42C26.3149 21.42 26.8816 21.36 27.3216 21.24C27.7749 21.12 28.1082 20.9667 28.3216 20.78C28.5482 20.5933 28.6616 20.3867 28.6616 20.16C28.6616 19.9067 28.5616 19.7 28.3616 19.54C28.1616 19.3933 27.8016 19.32 27.2816 19.32H23.9016C23.5816 19.32 23.3149 19.4 23.1016 19.56C22.9016 19.72 22.8016 19.94 22.8016 20.22C22.8016 20.5933 23.0482 20.8867 23.5416 21.1C24.0482 21.3133 24.7416 21.42 25.6216 21.42ZM25.6416 8.8C26.5749 8.8 27.3816 8.94 28.0616 9.22C28.7549 9.48667 29.2816 9.87333 29.6416 10.38C30.0149 10.8867 30.2016 11.4933 30.2016 12.2C30.2016 12.8933 30.0149 13.4933 29.6416 14C29.2816 14.5067 28.7549 14.9 28.0616 15.18C27.3816 15.4467 26.5749 15.58 25.6416 15.58C24.1616 15.58 23.0282 15.28 22.2416 14.68C21.4682 14.0667 21.0816 13.24 21.0816 12.2C21.0816 11.4933 21.2616 10.8867 21.6216 10.38C21.9949 9.87333 22.5216 9.48667 23.2016 9.22C23.8816 8.94 24.6949 8.8 25.6416 8.8ZM25.6416 10.52C25.1082 10.52 24.6682 10.6667 24.3216 10.96C23.9749 11.2533 23.8016 11.66 23.8016 12.18C23.8016 12.7 23.9749 13.1133 24.3216 13.42C24.6682 13.7133 25.1082 13.86 25.6416 13.86C26.1749 13.86 26.6082 13.7133 26.9416 13.42C27.2882 13.1133 27.4616 12.7 27.4616 12.18C27.4616 11.66 27.2882 11.2533 26.9416 10.96C26.6082 10.6667 26.1749 10.52 25.6416 10.52ZM33.8981 7.56C33.3248 7.56 32.8981 7.44 32.6181 7.2C32.3381 6.94667 32.1981 6.58 32.1981 6.1C32.1981 5.60667 32.3381 5.24 32.6181 5C32.8981 4.74667 33.3248 4.62 33.8981 4.62C34.4715 4.62 34.8981 4.74667 35.1781 5C35.4581 5.24 35.5981 5.60667 35.5981 6.1C35.5981 6.58 35.4581 6.94667 35.1781 7.2C34.8981 7.44 34.4715 7.56 33.8981 7.56ZM35.2581 9V19H32.5181V9H35.2581Z" fill="#FF5300"/>
<path d="M42.8027 19.2C41.7493 19.2 40.8293 18.9933 40.0427 18.58C39.2693 18.1667 38.6693 17.5733 38.2427 16.8C37.816 16.0267 37.6027 15.0933 37.6027 14C37.6027 12.9067 37.816 11.9733 38.2427 11.2C38.6693 10.4267 39.2627 9.83333 40.0227 9.42C40.796 9.00667 41.676 8.8 42.6627 8.8C43.676 8.8 44.536 9.00667 45.2427 9.42C45.9493 9.82 46.4893 10.3733 46.8627 11.08C47.236 11.7733 47.4227 12.5667 47.4227 13.46C47.4227 13.7267 47.416 13.98 47.4027 14.22C47.3893 14.46 47.3693 14.6733 47.3427 14.86H39.3627V12.96H46.1427L44.8227 13.44C44.8227 12.6 44.6293 11.9533 44.2427 11.5C43.8693 11.0467 43.336 10.82 42.6427 10.82C42.136 10.82 41.696 10.94 41.3227 11.18C40.9627 11.42 40.6893 11.78 40.5027 12.26C40.316 12.7267 40.2227 13.32 40.2227 14.04C40.2227 14.7467 40.3227 15.3333 40.5227 15.8C40.736 16.2533 41.0293 16.5933 41.4027 16.82C41.7893 17.0467 42.2493 17.16 42.7827 17.16C43.3693 17.16 43.8427 17.0467 44.2027 16.82C44.5627 16.5933 44.8427 16.28 45.0427 15.88L47.2227 16.72C47.0093 17.24 46.6827 17.6867 46.2427 18.06C45.816 18.4333 45.3027 18.72 44.7027 18.92C44.116 19.1067 43.4827 19.2 42.8027 19.2ZM49.7447 19V9H52.2047L52.3647 12L52.0247 11.68C52.1847 11.0267 52.438 10.4867 52.7847 10.06C53.1314 9.63333 53.5514 9.32 54.0447 9.12C54.5514 8.90667 55.1047 8.8 55.7047 8.8C56.398 8.8 57.0114 8.93333 57.5447 9.2C58.0914 9.46667 58.518 9.87333 58.8247 10.42C59.1447 10.9533 59.3047 11.6267 59.3047 12.44V19H56.5647V13.22C56.5647 12.3667 56.398 11.78 56.0647 11.46C55.7314 11.1267 55.298 10.96 54.7647 10.96C54.3914 10.96 54.0247 11.0533 53.6647 11.24C53.318 11.4133 53.0314 11.7 52.8047 12.1C52.5914 12.5 52.4847 13.0333 52.4847 13.7V19H49.7447ZM66.1275 19.2C65.1142 19.2 64.1875 19.02 63.3475 18.66C62.5208 18.3 61.8475 17.7933 61.3275 17.14L62.9075 15.54C63.2275 16.02 63.6542 16.4133 64.1875 16.72C64.7208 17.0267 65.3542 17.18 66.0875 17.18C66.6075 17.18 67.0208 17.1067 67.3275 16.96C67.6475 16.8 67.8075 16.5533 67.8075 16.22C67.8075 16.0067 67.7342 15.8267 67.5875 15.68C67.4408 15.52 67.1475 15.3933 66.7075 15.3L64.9475 14.94C63.7875 14.7 62.9608 14.34 62.4675 13.86C61.9875 13.3667 61.7475 12.7333 61.7475 11.96C61.7475 11.4133 61.9075 10.9 62.2275 10.42C62.5608 9.94 63.0542 9.55333 63.7075 9.26C64.3608 8.95333 65.1742 8.8 66.1475 8.8C67.1475 8.8 68.0142 8.96 68.7475 9.28C69.4942 9.58667 70.0808 10.0467 70.5075 10.66L68.8675 12.26C68.5742 11.7933 68.1875 11.44 67.7075 11.2C67.2408 10.9467 66.7475 10.82 66.2275 10.82C65.8542 10.82 65.5342 10.86 65.2675 10.94C65.0008 11.02 64.8008 11.1333 64.6675 11.28C64.5342 11.4133 64.4675 11.5867 64.4675 11.8C64.4675 12.0133 64.5608 12.2 64.7475 12.36C64.9342 12.5067 65.2742 12.6333 65.7675 12.74L67.8075 13.16C68.7942 13.36 69.5008 13.7 69.9275 14.18C70.3542 14.6467 70.5675 15.2133 70.5675 15.88C70.5675 16.52 70.3942 17.0933 70.0475 17.6C69.7142 18.0933 69.2142 18.4867 68.5475 18.78C67.8942 19.06 67.0875 19.2 66.1275 19.2ZM81.7814 9L77.7414 19.62C77.4214 20.5267 77.0614 21.2467 76.6614 21.78C76.2747 22.3133 75.8214 22.7 75.3014 22.94C74.7947 23.18 74.1881 23.3 73.4814 23.3C72.9614 23.3 72.4814 23.2333 72.0414 23.1C71.6147 22.98 71.2414 22.82 70.9214 22.62L71.5014 20.64C71.7547 20.84 72.0214 20.98 72.3014 21.06C72.5814 21.1533 72.9014 21.2 73.2614 21.2C73.6347 21.2 73.9547 21.12 74.2214 20.96C74.5014 20.8 74.7347 20.48 74.9214 20L75.2614 19.14L74.1614 16.54L71.1014 9H74.1414L76.0414 15L76.5614 17L77.1814 14.88L79.0014 9H81.7814Z" fill="white"/>
</svg>
