<svg width="111" height="25" viewBox="0 0 111 25" fill="none" xmlns="http://www.w3.org/2000/svg">
<path d="M7.07 5.8C9.13667 5.8 10.7367 6.37333 11.87 7.52C13.0033 8.66667 13.57 10.2933 13.57 12.4C13.57 14.5067 13.0033 16.1333 11.87 17.28C10.7367 18.4267 9.13667 19 7.07 19H1.97V5.8H7.07ZM6.93 16.8C8.18333 16.8 9.12333 16.4267 9.75 15.68C10.39 14.92 10.71 13.8267 10.71 12.4C10.71 10.9733 10.39 9.88667 9.75 9.14C9.12333 8.38 8.18333 8 6.93 8H4.73V16.8H6.93ZM17.3864 7.56C16.2531 7.56 15.6864 7.07333 15.6864 6.1C15.6864 5.11333 16.2531 4.62 17.3864 4.62C18.5197 4.62 19.0864 5.11333 19.0864 6.1C19.0864 7.07333 18.5197 7.56 17.3864 7.56ZM18.7464 9V19H16.0064V9H18.7464ZM27.5909 17.12C28.6709 17.12 29.5043 17.3533 30.0909 17.82C30.6776 18.2867 30.9709 18.94 30.9709 19.78C30.9709 20.5533 30.7509 21.2 30.3109 21.72C29.8709 22.24 29.2509 22.6333 28.4509 22.9C27.6643 23.1667 26.7509 23.3 25.7109 23.3C23.9909 23.3 22.7309 23.06 21.9309 22.58C21.1443 22.1 20.7509 21.4733 20.7509 20.7C20.7509 20.2467 20.8909 19.8467 21.1709 19.5C21.4643 19.1667 21.9309 18.9333 22.5709 18.8C21.6776 18.4667 21.2309 17.84 21.2309 16.92C21.2309 16.4667 21.3643 16.0667 21.6309 15.72C21.9109 15.3733 22.2909 15.1133 22.7709 14.94C21.7176 14.3533 21.1909 13.44 21.1909 12.2C21.1909 11.1467 21.5976 10.32 22.4109 9.72C23.2243 9.10667 24.3376 8.8 25.7509 8.8C26.5509 8.8 27.2709 8.90667 27.9109 9.12C28.0043 8.42667 28.2843 7.84 28.7509 7.36C29.2176 6.86667 29.8509 6.62 30.6509 6.62C30.6776 6.62 30.7109 6.62 30.7509 6.62C30.7909 6.62 30.8309 6.62 30.8709 6.62L31.1909 8.58C31.0843 8.56667 30.9643 8.56 30.8309 8.56C30.3243 8.56 29.9176 8.66 29.6109 8.86C29.3043 9.04667 29.1109 9.32 29.0309 9.68C29.8843 10.28 30.3109 11.12 30.3109 12.2C30.3109 13.24 29.8976 14.0667 29.0709 14.68C28.2576 15.28 27.1509 15.58 25.7509 15.58C25.1376 15.58 24.5776 15.5267 24.0709 15.42C23.7643 15.5 23.5443 15.62 23.4109 15.78C23.2909 15.9267 23.2309 16.0933 23.2309 16.28C23.2309 16.84 23.6576 17.12 24.5109 17.12H27.5909ZM25.7509 10.52C25.2176 10.52 24.7776 10.6667 24.4309 10.96C24.0843 11.2533 23.9109 11.66 23.9109 12.18C23.9109 12.7 24.0843 13.1133 24.4309 13.42C24.7776 13.7133 25.2176 13.86 25.7509 13.86C26.2709 13.86 26.7043 13.7133 27.0509 13.42C27.3976 13.1133 27.5709 12.7 27.5709 12.18C27.5709 11.66 27.3976 11.2533 27.0509 10.96C26.7043 10.6667 26.2709 10.52 25.7509 10.52ZM25.7309 21.42C26.7576 21.42 27.5176 21.2933 28.0109 21.04C28.5176 20.8 28.7709 20.5067 28.7709 20.16C28.7709 19.9067 28.6709 19.7 28.4709 19.54C28.2709 19.3933 27.9109 19.32 27.3909 19.32H24.0109C23.6909 19.32 23.4243 19.4 23.2109 19.56C23.0109 19.7333 22.9109 19.9533 22.9109 20.22C22.9109 20.5933 23.1576 20.8867 23.6509 21.1C24.1576 21.3133 24.8509 21.42 25.7309 21.42ZM34.0075 7.56C32.8742 7.56 32.3075 7.07333 32.3075 6.1C32.3075 5.11333 32.8742 4.62 34.0075 4.62C35.1408 4.62 35.7075 5.11333 35.7075 6.1C35.7075 7.07333 35.1408 7.56 34.0075 7.56ZM35.3675 9V19H32.6275V9H35.3675Z" fill="#FF5300"/>
<path d="M42.912 19.2C41.3387 19.2 40.0787 18.7467 39.132 17.84C38.1854 16.92 37.712 15.64 37.712 14C37.712 12.9067 37.9254 11.9733 38.352 11.2C38.7787 10.4267 39.372 9.83333 40.132 9.42C40.9054 9.00667 41.7854 8.8 42.772 8.8C43.7854 8.8 44.6454 9.00667 45.352 9.42C46.0587 9.82 46.5987 10.3733 46.972 11.08C47.3454 11.7733 47.532 12.5667 47.532 13.46C47.532 13.7267 47.5254 13.98 47.512 14.22C47.4987 14.46 47.4787 14.6733 47.452 14.86H40.392C40.4987 15.6333 40.7654 16.2133 41.192 16.6C41.632 16.9733 42.1987 17.16 42.892 17.16C43.4787 17.16 43.952 17.0467 44.312 16.82C44.672 16.5933 44.952 16.28 45.152 15.88L47.332 16.72C47.012 17.5067 46.452 18.12 45.652 18.56C44.852 18.9867 43.9387 19.2 42.912 19.2ZM42.752 10.82C41.4587 10.82 40.6787 11.5333 40.412 12.96H44.912C44.832 12.2667 44.6054 11.74 44.232 11.38C43.872 11.0067 43.3787 10.82 42.752 10.82ZM49.8541 19V9H52.3141L52.4141 10.88C52.7207 10.1867 53.1674 9.66667 53.7541 9.32C54.3541 8.97333 55.0407 8.8 55.8141 8.8C56.8541 8.8 57.7141 9.10667 58.3941 9.72C59.0741 10.32 59.4141 11.2267 59.4141 12.44V19H56.6741V13.22C56.6741 12.3667 56.5007 11.78 56.1541 11.46C55.8207 11.1267 55.3941 10.96 54.8741 10.96C54.5007 10.96 54.1341 11.0533 53.7741 11.24C53.4274 11.4133 53.1407 11.7 52.9141 12.1C52.7007 12.5 52.5941 13.0333 52.5941 13.7V19H49.8541ZM66.7769 8.8C68.1102 8.8 69.1435 9.08667 69.8769 9.66C70.6235 10.2333 71.1169 10.9267 71.3569 11.74L68.7969 12.66C68.5302 11.4467 67.8702 10.84 66.8169 10.84C66.0569 10.84 65.4635 11.1067 65.0369 11.64C64.6235 12.1733 64.4169 12.9667 64.4169 14.02C64.4169 15.0867 64.6302 15.88 65.0569 16.4C65.4969 16.9067 66.0902 17.16 66.8369 17.16C67.9969 17.16 68.6902 16.5667 68.9169 15.38L71.3969 16.18C71.1702 17.0733 70.6635 17.8 69.8769 18.36C69.1035 18.92 68.0969 19.2 66.8569 19.2C65.8169 19.2 64.9035 18.9933 64.1169 18.58C63.3435 18.1667 62.7435 17.5733 62.3169 16.8C61.8902 16.0267 61.6769 15.0933 61.6769 14C61.6769 12.9067 61.8902 11.9733 62.3169 11.2C62.7569 10.4267 63.3569 9.83333 64.1169 9.42C64.8902 9.00667 65.7769 8.8 66.7769 8.8ZM82.672 9L78.632 19.62C78.312 20.5267 77.952 21.2467 77.552 21.78C77.1654 22.3267 76.712 22.7133 76.192 22.94C75.6854 23.18 75.0787 23.3 74.372 23.3C73.852 23.3 73.372 23.24 72.932 23.12C72.5054 23 72.132 22.8333 71.812 22.62L72.392 20.64C72.8587 21.0133 73.4454 21.2 74.152 21.2C74.5387 21.2 74.8654 21.12 75.132 20.96C75.3987 20.8 75.6254 20.48 75.812 20L76.152 19.14L75.052 16.54L71.992 9H75.032L76.932 15L77.452 17L78.072 14.88L79.892 9H82.672Z" fill="#373737"/>
</svg>
