<svg width="24" height="22" viewBox="0 0 24 22" fill="none" xmlns="http://www.w3.org/2000/svg">
<g clip-path="url(#clip0_141_661)">
<path d="M12 2.3335C17.52 2.3335 22 6.21616 22 11.0002C22 15.7842 17.52 19.6668 12 19.6668C6.48 19.6668 2 15.7842 2 11.0002C2 6.21616 6.48 2.3335 12 2.3335ZM12 4.06683C7.58 4.06683 4 7.1695 4 11.0002C4 14.8308 7.58 17.9335 12 17.9335C16.42 17.9335 20 14.8308 20 11.0002C20 7.1695 16.42 4.06683 12 4.06683ZM12 6.66683C13.82 6.66683 15.413 7.5101 16.288 8.7711L14.574 9.6629C14.3043 9.27311 13.9213 8.95141 13.4634 8.72988C13.0055 8.50836 12.4885 8.39474 11.9641 8.40036C11.4397 8.40598 10.9262 8.53065 10.4747 8.76193C10.0232 8.99321 9.6496 9.32301 9.39107 9.71847C9.13254 10.1139 8.99815 10.5612 9.00128 11.0157C9.00442 11.4702 9.14498 11.9161 9.40895 12.3088C9.67292 12.7016 10.0511 13.0275 10.5057 13.2541C10.9603 13.4806 11.4756 13.6 12 13.6002C12.5181 13.6005 13.0275 13.4844 13.4785 13.2632C13.9294 13.0421 14.3065 12.7234 14.573 12.3383L16.288 13.2292C15.726 14.0427 14.8716 14.6739 13.8559 15.0261C12.8402 15.3783 11.7192 15.432 10.6649 15.179C9.61058 14.926 8.68114 14.3802 8.01914 13.6253C7.35713 12.8705 6.99912 11.9483 7 11.0002C7 8.60816 9.24 6.66683 12 6.66683Z" fill="white"/>
</g>
<defs>
<clipPath id="clip0_141_661">
<rect width="24" height="20.8" fill="white" transform="translate(0 0.600098)"/>
</clipPath>
</defs>
</svg>
