<svg width="40" height="40" viewBox="0 0 40 40" fill="none" xmlns="http://www.w3.org/2000/svg">
<rect width="40" height="40" fill="white"/>
<path d="M21.31 28.4C19.9877 28.6066 18.6353 28.4979 17.3629 28.083C16.0905 27.6681 14.9341 26.9586 13.9878 26.0122C13.0414 25.0659 12.3319 23.9095 11.917 22.6371C11.5021 21.3647 11.3934 20.0123 11.6 18.69C11.0787 17.6985 10.8883 16.5663 11.0564 15.4588C11.2246 14.3513 11.7425 13.3267 12.5346 12.5346C13.3267 11.7425 14.3513 11.2246 15.4588 11.0564C16.5663 10.8883 17.6985 11.0787 18.69 11.6C20.0123 11.3935 21.3647 11.5021 22.6371 11.917C23.9095 12.3319 25.0659 13.0414 26.0122 13.9878C26.9586 14.9341 27.6681 16.0905 28.083 17.3629C28.4979 18.6353 28.6066 19.9877 28.4 21.31C28.9213 22.3015 29.1117 23.4337 28.9436 24.5412C28.7754 25.6487 28.2575 26.6733 27.4654 27.4654C26.6733 28.2575 25.6487 28.7754 24.5412 28.9436C23.4337 29.1117 22.3015 28.9213 21.31 28.4V28.4ZM20.052 25.156H20.012C22.884 25.156 24.315 23.77 24.315 21.913C24.315 20.715 23.764 19.442 21.589 18.955L19.606 18.515C18.851 18.343 17.984 18.115 17.984 17.4C17.984 16.685 18.604 16.187 19.708 16.187C21.938 16.187 21.735 17.715 22.839 17.715C23.415 17.715 23.932 17.373 23.932 16.785C23.932 15.415 21.735 14.385 19.876 14.385C17.855 14.385 15.703 15.244 15.703 17.529C15.703 18.627 16.097 19.799 18.263 20.342L20.952 21.013C21.768 21.215 21.97 21.672 21.97 22.085C21.97 22.772 21.286 23.443 20.052 23.443C17.635 23.443 17.974 21.586 16.678 21.586C16.098 21.586 15.675 21.984 15.675 22.557C15.675 23.671 17.027 25.155 20.052 25.155V25.156Z" fill="#FF5300"/>
</svg>
