<svg width="40" height="40" viewBox="0 0 40 40" fill="none" xmlns="http://www.w3.org/2000/svg">
<rect width="40" height="40" fill="white"/>
<g clip-path="url(#clip0_799_2779)">
<path d="M30.162 13.656C29.3986 13.9937 28.589 14.2155 27.76 14.314C28.6338 13.7914 29.2877 12.969 29.6 12C28.78 12.488 27.881 12.83 26.944 13.015C26.3146 12.3416 25.4804 11.895 24.571 11.7446C23.6615 11.5942 22.7279 11.7485 21.9153 12.1835C21.1026 12.6184 20.4564 13.3097 20.0771 14.1498C19.6978 14.9899 19.6067 15.9318 19.818 16.829C18.1551 16.7457 16.5283 16.3135 15.0433 15.5607C13.5582 14.8078 12.2481 13.7511 11.198 12.459C10.8263 13.0975 10.631 13.8232 10.632 14.562C10.632 16.012 11.37 17.293 12.492 18.043C11.828 18.0221 11.1786 17.8428 10.598 17.52V17.572C10.5982 18.5377 10.9324 19.4736 11.5438 20.2211C12.1553 20.9685 13.0065 21.4815 13.953 21.673C13.3366 21.84 12.6903 21.8647 12.063 21.745C12.3299 22.5762 12.85 23.3032 13.5506 23.8241C14.2512 24.345 15.0971 24.6338 15.97 24.65C15.1025 25.3313 14.1092 25.835 13.0469 26.1322C11.9846 26.4294 10.8741 26.5143 9.779 26.382C11.6907 27.6114 13.9161 28.2641 16.189 28.262C23.882 28.262 28.089 21.889 28.089 16.362C28.089 16.182 28.084 16 28.076 15.822C28.8949 15.2302 29.6016 14.497 30.163 13.657L30.162 13.656Z" fill="#FF5300"/>
</g>
<defs>
<clipPath id="clip0_799_2779">
<rect width="24" height="24" fill="white" transform="translate(8 8)"/>
</clipPath>
</defs>
</svg>
